<svg xmlns="http://www.w3.org/2000/svg" viewBox="0 0 116.1 46.8"><defs><style>.a{fill:#fff}.b{fill:#cd0014}</style></defs><path class="a" d="M68.2 6.1a6.1 6.1 0 0 1 4.5 1.6l-1.3 1.9a4.41 4.41 0 0 0-6.2 0 4.52 4.52 0 0 0-1.3 3.5 4.47 4.47 0 0 0 4.1 4.8h.3a5.53 5.53 0 0 0 4-1.8l1.1 1.9a6.8 6.8 0 0 1-9.6.3 7 7 0 0 1-2.2-5.1 6.69 6.69 0 0 1 6.3-7 .37.37 0 0 1 .3-.1zm6 15.7a4.25 4.25 0 0 0 1.1.2 1.18 1.18 0 0 0 1.2-1.3v-.1a1.7 1.7 0 0 0-.1-.7l-3.5-9.7h2.4l2.4 7.1 2.2-7.1h2.3l-3.9 11.5a2.55 2.55 0 0 1-2.7 2.3 6.75 6.75 0 0 1-1.4-.2zM97.7 19.9h-2.2v-5.3c0-1.7-.5-2.6-1.8-2.6s-2.1 1.1-2.1 3.1v4.8h-2.2V14c0-1.3-.6-2.1-1.7-2.1-1.4 0-2.1 1.3-2.1 3.1v4.8h-2.2v-9.6h2.2v1.9a3 3 0 0 1 3.1-2.1 2.6 2.6 0 0 1 2.7 2 3.42 3.42 0 0 1 3.1-2c2.3 0 3.4 1.5 3.4 4.7v5.2zM105.1 12.5a2.11 2.11 0 0 0-1.3-.5c-1.6 0-2.4 1.3-2.4 3.3v4.5h-2.2v-9.7h2.2V12a2.82 2.82 0 0 1 2.8-2 2.87 2.87 0 0 1 1.8.7zM106.8 10.2h2.2v5c0 1.9.6 3 2 3s2.4-1 2.4-3.3v-4.7h2.2v6.4a5.86 5.86 0 0 0 .5 3.2H114a4.48 4.48 0 0 1-.4-2 3.48 3.48 0 0 1-3.2 2.2c-2.4 0-3.5-1.7-3.5-4.9zM75.8 39.1h-2.2L70.8 29 68 39.1h-2.2l-3.9-13.5h2.4l2.7 9.9 2.7-9.9H72l2.7 9.9 2.6-9.9h2.4zM79.3 31.8a3.67 3.67 0 0 1 3.7-2.6c2.7 0 3.9 1.3 3.9 4.1V37a3.61 3.61 0 0 0 .6 2h-2.2a2.45 2.45 0 0 1-.6-1.6 2.4 2.4 0 0 1-2.6 1.8 2.87 2.87 0 0 1-3.1-2.8v-.3c0-2 1.6-2.9 3.6-3.2l2.2-.3a1.63 1.63 0 0 0-1.3-1.8h-.4a1.67 1.67 0 0 0-1.8 1.5zm5.5 3.3v-.7l-1.8.2c-.9.1-1.8.5-1.8 1.5a1.32 1.32 0 0 0 1.3 1.3h.1a2.14 2.14 0 0 0 2.2-2.1v-.2zM88.8 25.6H91v10.3a5.86 5.86 0 0 0 .5 3.2h-2.2a7 7 0 0 1-.5-3.2zM94.7 34.9a2.76 2.76 0 0 0 2.8 2.6 3.19 3.19 0 0 0 2.7-1.4l1.3 1.4a5.33 5.33 0 0 1-4.1 1.9 4.81 4.81 0 0 1-5-4.6v-.4a4.89 4.89 0 0 1 4.6-5.1h.2a4.11 4.11 0 0 1 4.3 3.8v.3a7.57 7.57 0 0 1-.1 1.5zm.2-1.9h4.6a2.1 2.1 0 0 0-2.2-1.9 2.38 2.38 0 0 0-2.4 1.9zM105.8 34.9c-1.5-.6-2.8-1.5-2.8-3 0-1.7 1.5-2.7 3.4-2.7a4.07 4.07 0 0 1 3.2 1.5l-1.1 1.4a3.6 3.6 0 0 0-2.1-1.1c-.8 0-1.4.3-1.4.8s.9 1 2.2 1.5c1.8.8 2.7 1.6 2.7 3 0 1.9-1.5 3-3.4 3a4.17 4.17 0 0 1-3.9-2.1l1.5-1.4a2.53 2.53 0 0 0 2.3 1.5c.7 0 1.3-.4 1.3-.9s-.5-.9-1.9-1.5z"/><path class="b" d="M10.1 26.3C6.9 24.8 5 22.1 5.3 20c.1-1.2.2-1.7-.3-2.2a1.83 1.83 0 0 0-1.7-.6 1 1 0 0 1 .7 1.2.85.85 0 0 1-.3.6l-.1.1a1.9 1.9 0 0 0-1.8-1.5 2 2 0 0 0-1.8 1 1.42 1.42 0 0 1 .6-.2 1.21 1.21 0 0 1 1.1 1.3 1.18 1.18 0 0 1-1.1 1.1 1.07 1.07 0 0 1-.6-.2 2 2 0 0 0 1.7 1.1H2a3.64 3.64 0 0 0 1.9 2.6 3 3 0 0 0-.1 2.3 4.76 4.76 0 0 1-.2 2.9 3 3 0 0 0 2-2.1c.2 0 2.3.1 3.1 2.9a3.86 3.86 0 0 1-1.5 4.1 3.78 3.78 0 0 0 2.7-1 4.81 4.81 0 0 0 1.1.9 9.64 9.64 0 0 0 0-2.4 7 7 0 0 1-.9-5.6zM21.5 9.3c.2-.1 1.3-.7 1.3-1.7a2.13 2.13 0 0 0-.7-1.5 1.88 1.88 0 0 1-1.7 2c-1.5.4-1.8 1.4-1.8 1.6a6 6 0 0 0 2.9-.4zM11.5 30.6a4.7 4.7 0 0 1 3.5-3.9 16 16 0 0 1 .5-2.1 5.42 5.42 0 0 0-4.1 2 5.53 5.53 0 0 0 .1 4zM15.9 23.3l.6-2.1a4.91 4.91 0 0 0-3.5 1.3 4.1 4.1 0 0 0-1.3 2.3 6.55 6.55 0 0 1 4.2-1.5zM6.5 13.9a3.33 3.33 0 0 1 .3-.6c-3.3-.9-4.8.5-4.8.5s2-.7 3.7 1.6a4.56 4.56 0 0 1 .4-.8c.3.2 3 2.1 5.6 1.2l.9-1.3a6.58 6.58 0 0 1-6.1-.6z"/><path class="b" d="M24.5 6.4a5.12 5.12 0 0 1-4.8 4.2 11.08 11.08 0 0 1-1.9-.2l-.4-.1a4.26 4.26 0 0 0-3.5.4c-.2.3-.6 1.5-1.7 1.6h-.3c-1.3 0-3.1-.4-3.9 1.4a1.93 1.93 0 0 1 1-.3l1.3 1 2.4-.5h.1l1.7 1.6-3.1 1.2a1.49 1.49 0 0 1-.9-.2l1.2 3a3.41 3.41 0 0 1 1.8-2.1 3 3 0 0 1 2.9-.1 4.7 4.7 0 0 0-2.9 3.5 5.24 5.24 0 0 1 3.4-1l1.9-5.8a28.32 28.32 0 0 1-2.8-2 4.67 4.67 0 0 1-1.7.3.1.1 0 0 1-.1-.1v-.1a5.8 5.8 0 0 0 2.1-1h.1l3.1 2.3a9.13 9.13 0 0 1 4.2-1.7 3.68 3.68 0 0 0 1-5.1zm-10.3 6z"/><path class="b" d="M50.2 9.4c-.7-.2-3-.7-2.5-2.1.6-1.9 4.4-2.9 4.4-2.9-10.8 1.4-18.9 4.8-24.4 10.5l-.3.3a20.11 20.11 0 0 0-3.6 5.5C24.8 18.5 29.1 8 43.3 5c-1.3-.1-3.3-.5-3.5-1.5s1-2.7 2.4-3.5C29.8 3.3 24.5 13.3 21.5 21.5a4 4 0 0 0-1.3 1.3c.4-1.1 2.5-6.3 2.1-9.5a4.77 4.77 0 0 0-2.2 1.2c-.8 2.3-3 8.4-3.5 10.2-.7 2.4-.7 5 1.4 5.9a3.18 3.18 0 0 0 1.4.2 30.88 30.88 0 0 0 6.1-.8c.8-.2 1.6-.4 2.6-.7l1.3-.4A4.37 4.37 0 0 0 28 25a5.85 5.85 0 0 0-4-1.3 6.06 6.06 0 0 1 4.2.2 6 6 0 0 1 6.3-.6s2.6-4 7.8-1.7a6.08 6.08 0 0 1 6.5-5.7h.1c-.1-.2-4.9-4.4 1.3-6.5zm-10 9.8a11 11 0 0 0-6.2-2.3h-.6a7.59 7.59 0 0 0-4.8 1.9 5.5 5.5 0 0 1 4.5 2.2l.2.3-.3-.2a7.06 7.06 0 0 0-4.2-1.4 5.66 5.66 0 0 0-1.8.3c-.5.2-.9.5-1.3.7l-.5.4-.2.3.5-.8a9.23 9.23 0 0 1 5.8-4.3 12.25 12.25 0 0 1 1.9-.2 9.31 9.31 0 0 1 7.2 3zm-3-6.8h.7a21.23 21.23 0 0 1 7.5 1.4v.1a33.53 33.53 0 0 0-7.1-.7h-1.6a15.53 15.53 0 0 0-6.3 2l-.2.1-.1-.1c5.4-4.5 11.6-5.5 15.8-5.9v.1c-.1 0-6.6 1.3-9.6 3z"/><path class="b" d="M22.4 31.7a15.14 15.14 0 0 1-3 .2 4.2 4.2 0 0 1-2.9-.9 3.84 3.84 0 0 1-1.5-3 3.39 3.39 0 0 0-2 1.7 5.9 5.9 0 0 0-.7 2.5 5.61 5.61 0 0 1-1.1 4.5 4.15 4.15 0 0 1-.3 1.6c-.4 1.1-1.4 3.1-3.2 3.7a1.75 1.75 0 0 1-1.4-.7c-1.4-1.9-2.8-1.1-3.3-.6a.8.8 0 0 1 1.1.3.6.6 0 0 1 .1.4 1 1 0 0 1-.9.8 1.56 1.56 0 0 0-1.7 1.4v.6a.92.92 0 0 1 1.3-.4.92.92 0 0 1 .4 1.3.89.89 0 0 1-.8.5c-.1 0-.2.1-.3.1a1.55 1.55 0 0 0 2-.3 5.72 5.72 0 0 0 5.1 0 2.88 2.88 0 0 0 2.4.1c.9-.3 2.2-.8 3.4 0-.5-2.1-2.7-2.2-2.7-4.7a1.88 1.88 0 0 1 1.9-1.8 1.78 1.78 0 0 1 1.6 1 1.6 1.6 0 0 0-.5-2.1c1.1-1.3 3.1-.4 3.1-.4a1.47 1.47 0 0 0-.2-1.1c2.7-.9 3.8-3.7 4.1-4.7zM24.5 34.6a8.94 8.94 0 0 0 1.1-3.5 14.16 14.16 0 0 1-2 .4 13.26 13.26 0 0 1-1.8 3.8 3.06 3.06 0 0 0 2.7-.7zM28.2 34a9.44 9.44 0 0 0 1.3-4l-1 .3a18 18 0 0 1-1.9.5 14.84 14.84 0 0 1-1.2 4.1 3.8 3.8 0 0 0 2.8-.9zM32.8 29.2c-.8.2-1.4.3-2.2.5a9.26 9.26 0 0 1-1.2 4.3 4.55 4.55 0 0 0 1.9-.8 9.24 9.24 0 0 0 1.5-4zM33.9 27.9a12.25 12.25 0 0 1 1.9-.2c-.1-2.5-1.4-3.4-1.8-3.6a3.67 3.67 0 0 0-1.8-.1 5.61 5.61 0 0 1 1.7 3.9zM30.5 28.6a15.54 15.54 0 0 1 2.3-.5c-.2-2.6-1.5-3.5-2-3.8a3.67 3.67 0 0 0-1.8.1 5.13 5.13 0 0 1 1.5 4.2zM34.1 41.1a2.27 2.27 0 0 1 .6-1.6 1.35 1.35 0 0 1 1.5.9 1.54 1.54 0 0 0-.5-1.9 1.74 1.74 0 0 1-.3-1.4 1.91 1.91 0 0 1 .5-1 3 3 0 0 1 .8-.8 6 6 0 0 0-6.2-.2 2.62 2.62 0 0 0-.5 2.8 7 7 0 0 1 2.2 2.9 1.36 1.36 0 0 1-.7 1.8 1.37 1.37 0 0 1-1.8-.6c-1.2-1.4-2.3-1.4-3-1.2a.85.85 0 0 1 .7.8 1 1 0 0 1-.9.8 1.48 1.48 0 0 0-1.7 1.2v.5a1.202 1.202 0 0 1 1.7 1.7c-.1.1-.2.1-.3.2a1.56 1.56 0 0 0 1.6-.4 5.15 5.15 0 0 0 5.1-.3 1.83 1.83 0 0 0 2.4.3 2.23 2.23 0 0 1 2.1.2c-1-2.2-3.3-1.7-3.3-4.7z"/><path class="b" d="M50 43.1c-1.9-1.4-2.4-2.7-1.8-3.2s1.4 0 1.4 0a2.15 2.15 0 0 0-1.7-1.4c-2.8-1.2-2.9-4.3-3.9-6.1a9.19 9.19 0 0 0-5.2-3.4 15.46 15.46 0 0 0-4.8.1 10.18 10.18 0 0 1-1.2 4.1 6.29 6.29 0 0 1 4.2 1.2l.1.1.1.1.3.2h.1l.3.2.1.1a8.37 8.37 0 0 1 2 2.9c3-.2 5.2 2.4 5.5 3 .6 1.1-.4 2.2-2 .6s-2.7-.7-3.2-.2a.75.75 0 0 1 1 .2.6.6 0 0 1 .1.4c0 .4-.3.7-.8.8-2 .3-1.3 1.9-1.3 1.9a1.1 1.1 0 1 1 1.9 1.1 1.38 1.38 0 0 1-.3.4 2.51 2.51 0 0 0 1.5-.2 8 8 0 0 0 5.5-.2 3.23 3.23 0 0 0 2.7.4 2.35 2.35 0 0 1 2.5.6c-.3-2.5-2-2.9-3.1-3.7zM49.9 15.9a8.34 8.34 0 0 1 1.2.8L50 17.8a7.64 7.64 0 0 1 .9.9l1.1-1.2a12 12 0 0 1 1.1 1.2c1.1-4.9 5-5.5 5-5.5s-3.3-1.3-8.2 2.7z"/><path class="b" d="M47.1 17.6a3.29 3.29 0 0 0-3.3 3.1 2.45 2.45 0 0 0 2.5 2.4 2.23 2.23 0 0 0 1.8-1 1.66 1.66 0 0 0-.5-1.2 2 2 0 0 1-.8.4c-.4 0-.7-.2-.7-.6v-.1c0-.4.6-.7 1-.7 1.3 0 1.8 1.2 1.8 2.5 0 1.8-1.9 3.3-3.7 3.3-2.9 0-4.8-2.8-10-1.9 0 0 1.5 1 1.7 3.9a13.66 13.66 0 0 1 1.9.2 8.41 8.41 0 0 1 5.9 3.9c1.7-.3 7.4-2.8 7.4-8.3 0-2.1-1.4-5.9-5-5.9z"/></svg>